if (_typeface_js && _typeface_js.loadFace) _typeface_js.loadFace({"glyphs":{"1":{"ha":1133,"x_min":154,"x_max":1099,"o":"m 706 908 q 691 886 689 908 q 710 838 693 864 q 753 789 726 811 q 811 767 781 767 q 820 771 817 767 q 821 781 824 775 q 804 821 815 799 q 778 863 793 843 q 744 895 763 882 q 706 908 725 908 m 1063 300 q 1089 249 1079 276 q 1099 189 1099 221 q 1084 115 1099 150 q 1044 55 1069 81 q 984 15 1018 29 q 911 0 950 0 q 838 15 872 0 q 778 55 804 29 q 738 115 753 81 q 724 189 724 150 q 733 249 724 221 q 760 300 743 276 q 810 391 790 343 q 842 489 831 439 q 842 556 849 522 q 815 618 835 590 q 717 721 764 689 q 619 753 669 753 q 518 727 571 753 q 401 656 465 701 q 342 646 374 646 q 269 660 303 646 q 209 701 235 675 q 169 761 183 726 q 154 835 154 796 q 169 908 154 874 q 209 967 183 942 q 269 1008 235 993 q 342 1022 303 1022 q 456 983 406 1022 q 538 953 503 953 q 599 974 571 953 q 656 1027 628 996 q 718 1094 685 1058 q 796 1160 751 1131 q 849 1190 819 1179 q 911 1200 879 1200 q 984 1185 950 1200 q 1044 1145 1018 1171 q 1084 1085 1069 1119 q 1099 1011 1099 1050 q 1089 951 1099 979 q 1063 900 1079 924 q 992 756 1015 832 q 969 600 969 679 q 992 444 969 521 q 1063 300 1015 368 z "},"\u0000":{"ha":0,"x_min":0,"x_max":0,"o":""},"\r":{"ha":563,"x_min":0,"x_max":0,"o":""}," ":{"ha":563,"x_min":0,"x_max":0,"o":""},"A":{"ha":1160,"x_min":15,"x_max":1122,"o":"m 822 388 q 869 638 878 510 q 836 707 867 681 q 768 733 806 733 q 711 715 738 733 q 566 581 629 657 q 461 414 503 504 q 452 365 450 389 q 467 319 454 340 q 501 285 479 299 q 549 271 522 272 l 568 271 q 640 276 601 271 q 713 294 678 281 q 778 330 749 307 q 822 388 807 353 m 1083 304 q 1114 235 1106 274 q 1114 154 1122 196 q 1047 48 1099 88 q 929 8 996 8 q 821 42 867 8 q 700 101 764 82 q 569 121 636 121 q 439 101 503 121 q 317 42 375 82 q 266 17 293 26 q 210 7 239 7 q 140 20 172 7 q 81 57 107 33 q 40 112 56 81 q 21 181 24 143 q 28 249 18 217 q 57 307 38 281 q 103 352 76 333 q 164 379 131 371 q 450 518 324 419 q 653 756 576 617 q 669 821 671 788 q 651 881 667 854 q 607 926 635 908 q 543 943 579 943 q 424 920 486 943 q 317 865 363 897 q 208 831 269 831 q 127 849 165 831 q 63 898 89 867 q 26 970 38 929 q 24 1057 15 1011 q 89 1166 36 1125 q 210 1207 142 1207 q 317 1174 268 1207 q 439 1114 375 1133 q 569 1094 503 1094 q 700 1114 636 1094 q 821 1174 764 1133 q 929 1207 867 1207 q 1047 1167 996 1207 q 1114 1061 1099 1128 q 1114 981 1122 1019 q 1083 911 1106 942 q 1013 765 1036 843 q 989 608 989 688 q 1013 450 989 528 q 1083 304 1036 372 z "},"B":{"ha":1171,"x_min":6,"x_max":1114,"o":"m 281 456 q 324 372 296 407 q 389 316 351 338 q 470 284 426 294 q 561 274 514 274 q 607 276 585 274 q 651 283 629 279 q 705 309 682 290 q 741 353 728 328 q 756 408 754 379 q 746 467 758 438 q 722 522 733 496 q 696 571 711 549 q 631 617 672 603 q 544 631 590 631 q 453 621 504 631 q 365 596 403 611 q 292 540 318 576 q 281 457 265 504 l 281 456 m 732 825 q 744 881 751 850 q 706 925 736 913 q 554 954 631 954 q 488 949 525 954 q 416 931 451 943 q 351 897 381 918 q 308 847 322 876 q 307 776 290 811 q 363 732 324 740 q 429 722 397 725 q 489 718 461 718 q 633 747 574 718 q 732 825 692 775 m 1100 253 q 1104 162 1114 206 q 1069 85 1094 118 q 1004 31 1043 51 q 919 11 965 11 l 906 11 l 904 10 l 904 11 q 854 22 878 14 q 811 44 831 31 q 690 105 754 85 q 560 125 626 125 q 429 105 493 125 q 307 44 365 85 q 199 11 258 11 q 89 44 138 11 q 21 135 40 76 q 13 228 6 183 q 44 307 21 272 q 117 453 93 375 q 140 610 140 531 q 117 767 140 689 q 44 913 93 844 q 13 992 21 949 q 21 1085 6 1036 q 90 1176 40 1143 q 200 1210 139 1210 q 307 1175 260 1210 q 429 1115 365 1135 q 560 1096 493 1096 q 690 1115 626 1096 q 811 1175 754 1135 q 919 1210 858 1210 q 1004 1190 965 1210 q 1069 1135 1043 1169 q 1104 1058 1094 1101 q 1100 967 1114 1014 q 1058 892 1088 924 q 988 844 1028 860 q 917 833 950 832 q 857 819 889 833 l 853 817 q 777 753 807 794 q 743 660 747 711 q 748 544 736 599 q 788 444 760 490 q 835 399 804 414 q 901 386 867 383 q 910 388 906 388 q 919 388 915 388 q 1033 351 982 388 q 1100 253 1083 314 z "},"C":{"ha":1133,"x_min":0,"x_max":1099,"o":"m 911 376 q 984 362 950 376 q 1044 322 1018 347 q 1084 262 1069 296 q 1099 189 1099 228 q 1084 115 1099 150 q 1044 55 1069 81 q 984 15 1018 29 q 911 0 950 0 q 849 10 879 0 q 796 40 819 21 q 678 97 740 78 q 550 115 615 115 q 422 97 485 115 q 303 40 360 78 q 249 10 279 21 q 188 0 219 0 q 115 15 149 0 q 55 55 81 29 q 15 115 29 81 q 0 189 0 150 q 10 249 0 221 q 36 300 19 276 q 107 444 83 368 q 131 600 131 521 q 107 756 131 679 q 36 900 83 832 q 10 951 19 924 q 0 1011 0 979 q 15 1085 0 1050 q 55 1145 29 1119 q 115 1185 81 1171 q 188 1200 149 1200 q 249 1190 219 1200 q 303 1160 279 1179 q 422 1103 360 1122 q 550 1085 485 1085 q 678 1103 615 1085 q 796 1160 740 1122 q 849 1190 819 1179 q 911 1200 879 1200 q 984 1185 950 1200 q 1044 1145 1018 1171 q 1084 1085 1069 1119 q 1099 1011 1099 1050 q 1084 938 1099 972 q 1044 878 1069 904 q 984 838 1018 853 q 911 824 950 824 q 796 863 846 824 q 678 919 740 900 q 553 938 617 938 q 445 919 496 938 q 354 867 394 900 q 287 786 314 833 q 251 682 260 739 q 251 518 239 600 q 287 414 260 461 q 354 333 314 367 q 445 281 394 300 q 553 263 496 263 q 678 281 617 263 q 796 338 740 300 q 911 376 846 376 z "},"D":{"ha":1200,"x_min":0,"x_max":1108,"o":"m 404 321 q 406 295 400 307 q 426 279 413 283 q 550 263 488 263 q 638 271 594 263 q 724 297 682 279 q 741 307 731 301 q 758 317 751 313 q 814 395 801 349 q 822 499 826 442 q 801 622 817 556 q 771 761 785 689 q 760 774 768 769 q 746 772 753 778 q 531 580 619 696 q 404 321 443 464 m 651 910 q 649 922 653 917 q 639 929 646 928 q 594 936 617 933 q 549 939 572 939 q 453 927 499 939 q 369 890 407 915 q 305 827 332 865 q 264 738 278 789 q 245 589 244 664 q 269 442 246 514 q 281 424 272 431 q 301 418 290 418 q 319 424 313 418 q 533 633 447 507 q 651 910 619 758 m 956 829 q 883 769 894 806 q 892 688 872 733 q 949 586 911 642 q 1024 467 988 531 q 1085 334 1061 404 q 1099 189 1108 264 q 1084 115 1099 150 q 1044 55 1069 81 q 984 15 1018 29 q 911 0 950 0 q 849 10 879 0 q 796 40 819 21 q 678 97 740 78 q 550 115 615 115 q 422 97 485 115 q 303 40 360 78 q 249 10 279 21 q 188 0 219 0 q 115 15 149 0 q 55 55 81 29 q 15 115 29 81 q 0 189 0 150 q 10 249 0 221 q 36 300 19 276 q 107 444 83 368 q 131 600 131 521 q 107 756 131 679 q 36 900 83 832 q 10 951 19 924 q 0 1011 0 979 q 15 1085 0 1050 q 55 1145 29 1119 q 115 1185 81 1171 q 188 1200 149 1200 q 249 1190 219 1200 q 303 1160 279 1179 q 422 1103 360 1122 q 550 1085 485 1085 q 678 1103 615 1085 q 796 1160 740 1122 q 849 1190 819 1179 q 911 1200 879 1200 q 984 1185 950 1200 q 1044 1145 1018 1171 q 1084 1085 1069 1119 q 1099 1011 1099 1050 q 1088 949 1099 979 q 1058 896 1078 919 q 1013 855 1039 872 q 956 829 988 838 z "},"E":{"ha":1133,"x_min":0,"x_max":1099,"o":"m 688 867 q 684 903 694 886 q 654 925 674 921 q 549 938 603 938 q 458 928 501 938 q 378 899 414 919 q 314 844 342 878 q 271 761 286 811 q 261 471 225 618 q 278 446 265 456 q 306 436 290 436 q 326 442 317 436 q 547 619 454 510 q 688 867 640 729 m 911 376 q 984 362 950 376 q 1044 322 1018 347 q 1084 262 1069 296 q 1099 189 1099 228 q 1084 115 1099 150 q 1044 55 1069 81 q 984 15 1018 29 q 911 0 950 0 q 849 10 879 0 q 796 40 819 21 q 678 97 740 78 q 550 115 615 115 q 422 97 485 115 q 303 40 360 78 q 249 10 279 21 q 188 0 219 0 q 115 15 149 0 q 55 55 81 29 q 15 115 29 81 q 0 189 0 150 q 10 249 0 221 q 36 300 19 276 q 107 444 83 368 q 131 600 131 521 q 107 756 131 679 q 36 900 83 832 q 10 951 19 924 q 0 1011 0 979 q 15 1085 0 1050 q 55 1145 29 1119 q 115 1185 81 1171 q 188 1200 149 1200 q 249 1190 219 1200 q 303 1160 279 1179 q 422 1103 360 1122 q 550 1085 485 1085 q 678 1103 615 1085 q 796 1160 740 1122 q 849 1190 819 1179 q 911 1200 879 1200 q 984 1185 950 1200 q 1044 1145 1018 1171 q 1084 1085 1069 1119 q 1099 1011 1099 1050 q 1087 945 1099 976 q 1053 889 1075 914 q 1003 847 1032 864 q 940 825 974 831 q 777 762 854 803 q 635 665 700 721 q 519 539 569 608 q 433 390 468 469 q 426 347 424 369 q 438 308 428 325 q 467 278 449 290 q 507 264 485 267 q 656 275 582 257 q 796 338 731 293 q 911 376 846 376 z "},"F":{"ha":1133,"x_min":0,"x_max":1099,"o":"m 353 889 q 331 861 336 879 q 336 828 326 843 q 340 822 339 824 q 343 817 342 819 q 480 701 401 738 q 647 665 558 665 q 815 694 731 665 q 881 708 847 708 q 941 696 913 708 q 990 662 969 683 q 1024 612 1011 640 q 1036 551 1036 583 q 1024 490 1036 518 q 990 440 1011 461 q 941 407 969 419 q 881 394 913 394 q 799 417 836 394 q 742 476 761 440 q 670 567 711 528 q 580 634 629 607 q 476 676 531 661 q 365 690 422 690 q 278 653 313 690 q 246 564 243 615 q 274 426 251 493 q 339 300 297 360 q 365 249 356 276 q 375 189 375 221 q 360 115 375 150 q 320 55 346 81 q 260 15 294 29 q 188 0 226 0 q 115 15 149 0 q 55 55 81 29 q 15 115 29 81 q 0 189 0 150 q 10 249 0 221 q 36 300 19 276 q 107 444 83 368 q 131 600 131 521 q 107 756 131 679 q 36 900 83 832 q 10 951 19 924 q 0 1011 0 979 q 15 1085 0 1050 q 55 1145 29 1119 q 115 1185 81 1171 q 188 1200 149 1200 q 249 1190 219 1200 q 303 1160 279 1179 q 422 1103 360 1122 q 550 1085 485 1085 q 678 1103 615 1085 q 796 1160 740 1122 q 849 1190 819 1179 q 911 1200 879 1200 q 984 1185 950 1200 q 1044 1145 1018 1171 q 1084 1085 1069 1119 q 1099 1011 1099 1050 q 1084 938 1099 972 q 1044 878 1069 904 q 984 838 1018 853 q 911 824 950 824 q 796 863 846 824 q 673 928 731 906 q 557 951 615 951 q 451 933 503 951 q 353 889 399 915 z "},"G":{"ha":1160,"x_min":3,"x_max":1111,"o":"m 303 388 q 389 304 328 331 q 578 271 479 267 q 625 285 604 272 q 658 319 646 299 q 673 365 671 340 q 664 414 675 389 q 559 581 622 504 q 415 715 496 657 q 357 733 389 733 q 289 707 319 733 q 256 638 258 681 q 264 510 253 574 q 303 388 275 447 m 42 304 q 114 450 90 372 q 138 608 138 528 q 114 765 138 688 q 42 911 90 843 q 11 981 19 942 q 13 1061 3 1019 q 79 1167 28 1128 q 197 1207 131 1207 q 304 1174 261 1207 q 426 1114 363 1133 q 557 1094 490 1094 q 688 1114 624 1094 q 810 1174 753 1133 q 917 1207 858 1207 q 1037 1166 985 1207 q 1103 1057 1089 1125 q 1099 970 1111 1011 q 1062 898 1088 929 q 999 849 1036 867 q 918 831 961 831 q 810 865 857 831 q 759 896 788 882 q 701 920 731 910 q 640 937 671 931 q 582 943 610 943 q 519 926 547 943 q 474 881 490 908 q 457 821 458 854 q 472 756 456 788 q 675 518 549 617 q 963 379 801 419 q 1023 352 996 371 q 1069 307 1050 333 q 1099 249 1089 281 q 1106 181 1108 217 q 1087 112 1103 143 q 1045 57 1071 81 q 987 20 1019 33 q 917 7 954 7 q 860 17 886 7 q 810 42 833 26 q 688 101 753 82 q 557 121 624 121 q 426 101 490 121 q 304 42 363 82 q 197 8 261 8 q 79 48 131 8 q 13 154 28 88 q 11 235 3 196 q 42 304 19 274 z "},"H":{"ha":1133,"x_min":0,"x_max":1099,"o":"m 1063 900 q 992 756 1015 832 q 969 600 969 679 q 992 444 969 521 q 1063 300 1015 368 q 1089 249 1079 276 q 1099 189 1099 221 q 1084 115 1099 150 q 1044 55 1069 81 q 984 15 1018 29 q 911 0 950 0 q 838 15 872 0 q 778 55 804 29 q 738 115 753 81 q 724 189 724 150 q 733 249 724 221 q 760 300 743 276 q 788 344 775 322 q 810 390 800 367 q 811 470 828 431 q 754 526 794 510 q 529 571 644 571 q 346 542 436 571 q 309 521 325 535 q 284 489 293 507 q 274 450 275 471 q 282 408 274 429 q 339 300 304 350 q 365 249 356 276 q 375 189 375 221 q 360 115 375 150 q 320 55 346 81 q 260 15 294 29 q 188 0 226 0 q 115 15 149 0 q 55 55 81 29 q 15 115 29 81 q 0 189 0 150 q 10 249 0 221 q 36 300 19 276 q 107 444 83 368 q 131 600 131 521 q 107 756 131 679 q 36 900 83 832 q 10 951 19 924 q 0 1011 0 979 q 15 1085 0 1050 q 55 1145 29 1119 q 115 1185 81 1171 q 188 1200 149 1200 q 260 1185 226 1200 q 320 1145 294 1171 q 360 1085 346 1119 q 375 1011 375 1050 q 365 951 375 979 q 339 900 356 924 q 305 846 319 874 q 279 789 290 818 q 282 701 263 744 q 344 640 301 658 q 572 594 453 594 q 750 622 660 594 q 819 681 797 638 q 825 772 840 725 q 760 900 803 839 q 733 951 743 924 q 724 1011 724 979 q 738 1085 724 1050 q 778 1145 753 1119 q 838 1185 804 1171 q 911 1200 872 1200 q 984 1185 950 1200 q 1044 1145 1018 1171 q 1084 1085 1069 1119 q 1099 1011 1099 1050 q 1089 951 1099 979 q 1063 900 1079 924 z "},"I":{"ha":1133,"x_min":0,"x_max":1099,"o":"m 911 376 q 984 362 950 376 q 1044 322 1018 347 q 1084 262 1069 296 q 1099 189 1099 228 q 1084 115 1099 150 q 1044 55 1069 81 q 984 15 1018 29 q 911 0 950 0 q 849 10 879 0 q 796 40 819 21 q 678 97 740 78 q 550 115 615 115 q 422 97 485 115 q 303 40 360 78 q 249 10 279 21 q 188 0 219 0 q 115 15 149 0 q 55 55 81 29 q 15 115 29 81 q 0 189 0 150 q 15 262 0 228 q 55 322 29 296 q 115 362 81 347 q 188 376 149 376 q 303 338 253 376 q 327 322 313 331 q 358 305 342 313 q 391 292 375 297 q 419 286 407 286 q 466 301 444 286 q 496 340 488 315 q 535 601 538 468 q 483 858 532 733 q 453 896 474 882 q 407 910 432 910 q 381 905 394 910 q 352 893 367 900 q 325 878 338 886 q 303 863 313 869 q 188 824 253 824 q 115 838 149 824 q 55 878 81 853 q 15 938 29 904 q 0 1011 0 972 q 15 1085 0 1050 q 55 1145 29 1119 q 115 1185 81 1171 q 188 1200 149 1200 q 249 1190 219 1200 q 303 1160 279 1179 q 422 1103 360 1122 q 550 1085 485 1085 q 678 1103 615 1085 q 796 1160 740 1122 q 849 1190 819 1179 q 911 1200 879 1200 q 984 1185 950 1200 q 1044 1145 1018 1171 q 1084 1085 1069 1119 q 1099 1011 1099 1050 q 1084 938 1099 972 q 1044 878 1069 904 q 984 838 1018 853 q 911 824 950 824 q 796 863 846 824 q 772 878 786 869 q 740 895 757 888 q 708 908 724 903 q 679 914 692 914 q 633 899 654 914 q 603 860 611 885 q 564 599 561 732 q 615 342 567 467 q 645 304 624 318 q 690 290 667 290 q 717 295 703 290 q 745 307 731 300 q 773 322 760 314 q 796 338 786 331 q 911 376 846 376 z "},"J":{"ha":1133,"x_min":0,"x_max":1099,"o":"m 482 286 q 479 274 476 281 q 489 267 482 268 q 551 263 521 263 q 622 267 585 263 q 695 285 660 272 q 760 321 731 299 q 804 376 789 343 q 813 398 808 388 q 821 419 818 408 q 820 429 824 425 q 811 433 817 433 q 634 387 718 425 q 482 286 550 349 m 1063 900 q 992 756 1015 832 q 969 600 969 679 q 992 444 969 521 q 1063 300 1015 368 q 1089 249 1079 276 q 1099 189 1099 221 q 1084 115 1099 150 q 1044 55 1069 81 q 984 15 1018 29 q 911 0 950 0 q 849 10 879 0 q 796 40 819 21 q 678 97 740 78 q 550 115 615 115 q 422 97 485 115 q 303 40 360 78 q 249 10 279 21 q 188 0 219 0 q 115 15 149 0 q 55 55 81 29 q 15 115 29 81 q 0 189 0 150 q 15 262 0 228 q 55 322 29 296 q 115 362 81 347 q 188 376 149 376 q 247 367 222 376 q 308 356 278 360 q 368 353 338 353 q 619 414 501 353 q 815 583 736 475 q 842 713 857 642 q 810 809 831 761 q 760 900 790 857 q 733 951 743 924 q 724 1011 724 979 q 738 1085 724 1050 q 778 1145 753 1119 q 838 1185 804 1171 q 911 1200 872 1200 q 984 1185 950 1200 q 1044 1145 1018 1171 q 1084 1085 1069 1119 q 1099 1011 1099 1050 q 1089 951 1099 979 q 1063 900 1079 924 z "},"K":{"ha":1133,"x_min":0,"x_max":1099,"o":"m 911 376 q 984 362 950 376 q 1044 322 1018 347 q 1084 262 1069 296 q 1099 189 1099 228 q 1084 115 1099 150 q 1044 55 1069 81 q 984 15 1018 29 q 911 0 950 0 q 849 10 879 0 q 796 40 819 21 q 678 97 740 78 q 550 115 615 115 q 422 97 485 115 q 303 40 360 78 q 249 10 279 21 q 188 0 219 0 q 115 15 149 0 q 55 55 81 29 q 15 115 29 81 q 0 189 0 150 q 10 249 0 221 q 36 300 19 276 q 107 444 83 368 q 131 600 131 521 q 107 756 131 679 q 36 900 83 832 q 10 951 19 924 q 0 1011 0 979 q 15 1085 0 1050 q 55 1145 29 1119 q 115 1185 81 1171 q 188 1200 149 1200 q 260 1185 226 1200 q 320 1145 294 1171 q 360 1085 346 1119 q 375 1011 375 1050 q 365 951 375 979 q 339 900 356 924 q 259 721 281 817 q 250 528 238 625 q 278 476 254 496 q 332 457 303 457 q 376 471 357 457 q 508 577 449 517 q 613 709 568 638 q 686 863 657 781 q 725 1032 715 944 q 744 1099 729 1068 q 785 1151 760 1129 q 842 1187 810 1174 q 911 1200 875 1200 q 984 1185 950 1200 q 1044 1145 1018 1171 q 1084 1085 1069 1119 q 1099 1011 1099 1050 q 1087 945 1099 976 q 1053 889 1075 914 q 1003 847 1032 864 q 940 825 974 831 q 737 739 831 797 q 568 600 643 681 q 522 502 526 554 q 540 406 518 450 q 605 334 563 363 q 697 306 647 306 q 745 313 721 306 q 793 335 769 319 l 796 338 q 911 376 846 376 z "},"L":{"ha":1133,"x_min":0,"x_max":1099,"o":"m 911 376 q 984 362 950 376 q 1044 322 1018 347 q 1084 262 1069 296 q 1099 189 1099 228 q 1084 115 1099 150 q 1044 55 1069 81 q 984 15 1018 29 q 911 0 950 0 q 849 10 879 0 q 796 40 819 21 q 678 97 740 78 q 550 115 615 115 q 422 97 485 115 q 303 40 360 78 q 249 10 279 21 q 188 0 219 0 q 115 15 149 0 q 55 55 81 29 q 15 115 29 81 q 0 189 0 150 q 12 255 0 224 q 45 311 24 286 q 96 353 67 336 q 158 375 125 369 q 372 467 274 406 q 544 615 469 529 q 665 808 618 701 q 725 1032 713 914 q 744 1099 729 1068 q 785 1151 760 1129 q 842 1187 810 1174 q 911 1200 875 1200 q 984 1185 950 1200 q 1044 1145 1018 1171 q 1084 1085 1069 1119 q 1099 1011 1099 1050 q 1087 945 1099 976 q 1053 889 1075 914 q 1003 847 1032 864 q 940 825 974 831 q 792 769 863 804 q 660 685 721 733 q 550 578 600 638 q 463 450 500 518 q 447 385 446 418 q 465 326 449 353 q 508 281 481 299 q 571 264 536 264 q 689 285 629 264 q 796 338 749 306 q 911 376 846 376 z "},"M":{"ha":1857,"x_min":0,"x_max":1822,"o":"m 36 300 q 107 444 83 368 q 131 600 131 521 q 107 756 131 679 q 36 900 83 832 q 10 951 19 924 q 0 1011 0 979 q 15 1085 0 1050 q 55 1145 29 1119 q 115 1185 81 1171 q 188 1200 149 1200 q 256 1187 224 1200 q 313 1151 288 1174 q 353 1099 338 1129 q 374 1032 369 1068 q 478 722 393 863 q 699 486 564 581 q 754 469 724 469 q 819 494 790 469 q 851 558 849 518 q 835 735 858 647 q 760 900 813 824 q 733 951 743 924 q 724 1011 724 979 q 738 1085 724 1050 q 778 1145 753 1119 q 838 1185 804 1171 q 911 1200 872 1200 q 984 1185 950 1200 q 1044 1145 1018 1171 q 1084 1085 1069 1119 q 1099 1011 1099 1050 q 1089 951 1099 979 q 1063 900 1079 924 q 987 735 1010 824 q 971 558 964 647 q 1003 494 974 518 q 1068 469 1032 469 q 1124 486 1099 469 q 1344 722 1258 581 q 1449 1032 1429 863 q 1468 1099 1453 1068 q 1508 1151 1483 1129 q 1566 1187 1533 1174 q 1635 1200 1599 1200 q 1708 1185 1674 1200 q 1767 1145 1742 1171 q 1808 1085 1793 1119 q 1822 1011 1822 1050 q 1813 951 1822 979 q 1786 900 1803 924 q 1716 756 1739 832 q 1693 600 1693 679 q 1716 444 1693 521 q 1786 300 1739 368 q 1813 249 1803 276 q 1822 189 1822 221 q 1808 115 1822 150 q 1767 55 1793 81 q 1708 15 1742 29 q 1635 0 1674 0 q 1562 15 1596 0 q 1502 55 1528 29 q 1462 115 1476 81 q 1447 189 1447 150 q 1457 249 1447 221 q 1483 300 1467 276 q 1556 450 1532 371 q 1576 611 1579 529 q 1542 690 1575 660 q 1465 721 1508 721 q 1433 715 1450 721 q 1401 699 1417 710 q 1195 467 1275 604 q 1097 168 1115 331 q 1077 102 1093 133 q 1036 49 1061 71 q 979 13 1011 26 q 911 0 947 0 q 842 13 875 0 q 785 49 810 26 q 744 102 760 71 q 725 168 729 133 q 627 467 707 331 q 421 699 547 604 q 356 721 390 721 q 281 690 314 721 q 246 611 247 660 q 267 450 243 529 q 339 300 290 371 q 365 249 356 276 q 375 189 375 221 q 360 115 375 150 q 320 55 346 81 q 260 15 294 29 q 188 0 226 0 q 115 15 149 0 q 55 55 81 29 q 15 115 29 81 q 0 189 0 150 q 10 249 0 221 q 36 300 19 276 z "},"N":{"ha":1133,"x_min":0,"x_max":1099,"o":"m 1063 900 q 992 756 1015 832 q 969 600 969 679 q 992 444 969 521 q 1063 300 1015 368 q 1089 249 1079 276 q 1099 189 1099 221 q 1084 115 1099 150 q 1044 55 1069 81 q 984 15 1018 29 q 911 0 950 0 q 842 13 875 0 q 785 49 810 26 q 744 102 760 71 q 725 168 729 133 q 628 465 707 329 q 425 696 549 601 q 358 718 394 718 q 281 687 315 718 q 246 607 247 656 q 267 448 244 526 q 339 300 290 369 q 365 249 356 276 q 375 189 375 221 q 360 115 375 150 q 320 55 346 81 q 260 15 294 29 q 188 0 226 0 q 115 15 149 0 q 55 55 81 29 q 15 115 29 81 q 0 189 0 150 q 10 249 0 221 q 36 300 19 276 q 107 444 83 368 q 131 600 131 521 q 107 756 131 679 q 36 900 83 832 q 10 951 19 924 q 0 1011 0 979 q 15 1085 0 1050 q 55 1145 29 1119 q 115 1185 81 1171 q 188 1200 149 1200 q 256 1187 224 1200 q 313 1151 288 1174 q 353 1099 338 1129 q 374 1032 369 1068 q 470 735 392 871 q 674 504 549 599 q 740 482 704 482 q 817 513 783 482 q 853 593 851 544 q 831 752 854 674 q 760 900 808 831 q 733 951 743 924 q 724 1011 724 979 q 738 1085 724 1050 q 778 1145 753 1119 q 838 1185 804 1171 q 911 1200 872 1200 q 984 1185 950 1200 q 1044 1145 1018 1171 q 1084 1085 1069 1119 q 1099 1011 1099 1050 q 1089 951 1099 979 q 1063 900 1079 924 z "},"O":{"ha":1133,"x_min":0,"x_max":1099,"o":"m 293 381 q 338 323 308 346 q 402 287 367 300 q 476 268 438 274 q 549 263 514 263 q 653 275 601 263 q 684 297 674 279 q 688 335 694 315 q 547 581 639 472 q 328 758 454 689 q 307 764 318 764 q 278 754 292 764 q 261 728 265 744 q 247 552 239 640 q 293 381 256 464 m 810 811 q 765 873 793 849 q 701 912 736 897 q 628 933 667 926 q 551 939 589 939 q 497 935 524 939 q 444 925 471 932 q 415 903 425 921 q 411 865 404 885 q 551 620 458 729 q 771 442 644 511 q 792 436 781 436 q 820 446 807 436 q 838 472 833 456 q 851 644 858 557 q 810 811 844 731 m 1063 900 q 992 756 1015 832 q 969 600 969 679 q 992 444 969 521 q 1063 300 1015 368 q 1089 249 1079 276 q 1099 189 1099 221 q 1084 115 1099 150 q 1044 55 1069 81 q 984 15 1018 29 q 911 0 950 0 q 849 10 879 0 q 796 40 819 21 q 678 97 740 78 q 550 115 615 115 q 422 97 485 115 q 303 40 360 78 q 249 10 279 21 q 188 0 219 0 q 115 15 149 0 q 55 55 81 29 q 15 115 29 81 q 0 189 0 150 q 10 249 0 221 q 36 300 19 276 q 107 444 83 368 q 131 600 131 521 q 107 756 131 679 q 36 900 83 832 q 10 951 19 924 q 0 1011 0 979 q 15 1085 0 1050 q 55 1145 29 1119 q 115 1185 81 1171 q 188 1200 149 1200 q 249 1190 219 1200 q 303 1160 279 1179 q 422 1103 360 1122 q 550 1085 485 1085 q 678 1103 615 1085 q 796 1160 740 1122 q 849 1190 819 1179 q 911 1200 879 1200 q 984 1185 950 1200 q 1044 1145 1018 1171 q 1084 1085 1069 1119 q 1099 1011 1099 1050 q 1089 951 1099 979 q 1063 900 1079 924 z "},"P":{"ha":1133,"x_min":0,"x_max":1099,"o":"m 665 847 q 659 903 675 876 q 613 933 643 929 q 549 938 582 938 q 468 931 508 938 q 392 907 428 924 q 328 863 357 890 q 282 796 299 836 q 244 599 244 700 q 257 572 246 583 q 283 561 268 561 q 420 586 358 564 q 529 646 482 608 q 610 735 576 683 q 665 847 644 788 m 940 825 q 765 760 849 801 q 606 670 681 719 q 469 569 532 621 q 357 471 407 517 q 316 389 321 438 q 339 300 311 340 q 365 249 356 276 q 375 189 375 221 q 360 115 375 150 q 320 55 346 81 q 260 15 294 29 q 188 0 226 0 q 115 15 149 0 q 55 55 81 29 q 15 115 29 81 q 0 189 0 150 q 10 249 0 221 q 36 300 19 276 q 107 444 83 368 q 131 600 131 521 q 107 756 131 679 q 36 900 83 832 q 10 951 19 924 q 0 1011 0 979 q 15 1085 0 1050 q 55 1145 29 1119 q 115 1185 81 1171 q 188 1200 149 1200 q 249 1190 219 1200 q 303 1160 279 1179 q 422 1103 360 1122 q 550 1085 485 1085 q 678 1103 615 1085 q 796 1160 740 1122 q 849 1190 819 1179 q 911 1200 879 1200 q 984 1185 950 1200 q 1044 1145 1018 1171 q 1084 1085 1069 1119 q 1099 1011 1099 1050 q 1087 945 1099 976 q 1053 889 1075 914 q 1003 847 1032 864 q 940 825 974 831 z "},"Q":{"ha":1133,"x_min":0,"x_max":1099,"o":"m 365 314 q 369 300 361 304 q 550 263 456 263 q 675 278 624 263 q 762 325 726 293 q 817 406 797 357 q 847 522 838 456 q 844 525 847 525 q 810 529 826 528 q 775 531 793 531 q 544 474 653 531 q 365 314 436 417 m 831 754 q 788 839 815 804 q 722 896 760 874 q 641 928 685 918 q 549 938 597 938 q 373 892 450 938 q 265 746 296 847 q 258 482 229 614 q 263 478 258 478 q 379 464 318 464 q 517 483 450 464 q 644 540 585 503 q 751 631 703 578 q 831 751 799 685 l 831 754 m 1063 900 q 992 756 1015 832 q 969 600 969 679 q 992 444 969 521 q 1063 300 1015 368 q 1089 249 1079 276 q 1099 189 1099 221 q 1084 115 1099 150 q 1044 55 1069 81 q 984 15 1018 29 q 911 0 950 0 q 849 10 879 0 q 796 40 819 21 q 678 97 740 78 q 550 115 615 115 q 422 97 485 115 q 303 40 360 78 q 249 10 279 21 q 188 0 219 0 q 115 15 149 0 q 55 55 81 29 q 15 115 29 81 q 0 189 0 150 q 10 249 0 221 q 36 300 19 276 q 107 444 83 368 q 131 600 131 521 q 107 756 131 679 q 36 900 83 832 q 10 951 19 924 q 0 1011 0 979 q 15 1085 0 1050 q 55 1145 29 1119 q 115 1185 81 1171 q 188 1200 149 1200 q 249 1190 219 1200 q 303 1160 279 1179 q 422 1103 360 1122 q 550 1085 485 1085 q 678 1103 615 1085 q 796 1160 740 1122 q 849 1190 819 1179 q 911 1200 879 1200 q 984 1185 950 1200 q 1044 1145 1018 1171 q 1084 1085 1069 1119 q 1099 1011 1099 1050 q 1089 951 1099 979 q 1063 900 1079 924 z "},"R":{"ha":1133,"x_min":0,"x_max":1099,"o":"m 282 793 q 276 744 272 768 q 292 702 279 721 q 325 672 304 683 q 369 661 346 661 q 401 667 386 661 q 486 703 444 681 q 565 757 528 726 q 633 824 603 788 q 683 903 663 861 q 685 923 688 913 q 671 939 682 933 q 607 950 650 950 q 553 947 582 950 q 498 938 525 943 q 447 926 471 932 q 406 914 422 919 q 331 867 363 899 q 282 794 299 836 l 282 793 m 928 376 q 995 358 964 374 q 1049 317 1026 342 q 1085 259 1072 292 q 1099 189 1099 226 q 1084 115 1099 150 q 1044 55 1069 81 q 984 15 1018 29 q 911 0 950 0 q 838 15 872 0 q 778 55 804 29 q 738 115 753 81 q 724 189 724 150 q 725 213 724 201 q 729 236 726 225 q 741 329 742 283 q 728 419 740 375 q 647 535 706 494 q 518 575 588 575 q 431 557 474 575 q 356 503 389 539 q 353 500 353 500 q 310 402 314 458 q 339 300 307 346 q 365 249 356 276 q 375 189 375 221 q 360 115 375 150 q 320 55 346 81 q 260 15 294 29 q 188 0 226 0 q 115 15 149 0 q 55 55 81 29 q 15 115 29 81 q 0 189 0 150 q 10 249 0 221 q 36 300 19 276 q 107 444 83 368 q 131 600 131 521 q 107 756 131 679 q 36 900 83 832 q 10 951 19 924 q 0 1011 0 979 q 15 1085 0 1050 q 55 1145 29 1119 q 115 1185 81 1171 q 188 1200 149 1200 q 249 1190 219 1200 q 303 1160 279 1179 q 422 1103 360 1122 q 550 1085 485 1085 q 678 1103 615 1085 q 796 1160 740 1122 q 849 1190 819 1179 q 911 1200 879 1200 q 984 1185 950 1200 q 1044 1145 1018 1171 q 1084 1085 1069 1119 q 1099 1011 1099 1050 q 1086 943 1099 975 q 1051 886 1074 911 q 999 845 1029 861 q 935 825 969 829 q 848 805 890 817 q 764 778 806 793 q 713 746 735 767 q 680 699 692 725 q 667 644 668 674 q 678 585 667 614 q 775 451 710 507 q 928 376 840 396 z "},"S":{"ha":1133,"x_min":0,"x_max":1099,"o":"m 188 376 q 303 338 253 376 q 410 284 349 306 q 528 263 471 263 q 590 280 563 263 q 634 324 618 297 q 652 383 650 350 q 638 447 654 417 q 550 576 600 517 q 439 685 500 636 q 307 769 378 733 q 158 825 236 804 q 96 847 125 831 q 45 889 67 864 q 12 945 24 914 q 0 1011 0 976 q 15 1085 0 1050 q 55 1145 29 1119 q 115 1185 81 1171 q 188 1200 149 1200 q 249 1190 219 1200 q 303 1160 279 1179 q 422 1103 360 1122 q 550 1085 485 1085 q 678 1103 615 1085 q 796 1160 740 1122 q 849 1190 819 1179 q 911 1200 879 1200 q 984 1185 950 1200 q 1044 1145 1018 1171 q 1084 1085 1069 1119 q 1099 1011 1099 1050 q 1084 938 1099 972 q 1044 878 1069 904 q 984 838 1018 853 q 911 824 950 824 q 796 863 846 824 q 659 925 732 907 q 511 936 586 943 q 469 922 488 935 q 439 891 450 910 q 426 850 428 872 q 435 806 425 828 q 521 658 469 726 q 637 534 572 589 q 778 438 701 479 q 940 375 854 397 q 1003 353 974 369 q 1053 311 1032 336 q 1087 255 1075 286 q 1099 189 1099 224 q 1084 115 1099 150 q 1044 55 1069 81 q 984 15 1018 29 q 911 0 950 0 q 849 10 879 0 q 796 40 819 21 q 678 97 740 78 q 550 115 615 115 q 422 97 485 115 q 303 40 360 78 q 249 10 279 21 q 188 0 219 0 q 115 15 149 0 q 55 55 81 29 q 15 115 29 81 q 0 189 0 150 q 15 262 0 228 q 55 322 29 296 q 115 362 81 347 q 188 376 149 376 z "},"T":{"ha":1133,"x_min":0,"x_max":1099,"o":"m 911 1213 q 984 1198 950 1213 q 1044 1158 1018 1183 q 1084 1097 1069 1132 q 1099 1024 1099 1063 q 1084 950 1099 985 q 1044 890 1069 915 q 984 849 1018 864 q 911 835 950 835 q 849 845 879 835 q 796 875 819 856 q 782 884 789 879 q 768 892 775 889 q 740 903 754 900 q 710 907 725 907 q 643 886 674 907 q 601 829 613 865 q 576 728 585 779 q 564 625 567 678 q 590 462 561 542 q 679 322 619 382 q 719 262 704 296 q 735 189 735 228 q 720 115 735 150 q 680 55 706 81 q 620 15 654 29 q 547 0 586 0 q 474 15 508 0 q 415 55 440 29 q 374 115 389 81 q 360 189 360 150 q 374 260 360 226 q 413 319 388 294 q 493 433 461 371 q 532 567 525 496 q 510 829 543 701 q 467 891 499 868 q 399 914 436 914 q 346 900 369 914 q 303 875 325 890 q 249 845 279 856 q 188 835 219 835 q 115 849 149 835 q 55 890 81 864 q 15 950 29 915 q 0 1024 0 985 q 15 1097 0 1063 q 55 1158 29 1132 q 115 1198 81 1183 q 188 1213 149 1213 q 249 1202 219 1213 q 303 1172 279 1192 q 422 1116 360 1135 q 550 1097 485 1097 q 678 1116 615 1097 q 796 1172 740 1135 q 849 1202 819 1192 q 911 1213 879 1213 z "},"U":{"ha":1133,"x_min":0,"x_max":1099,"o":"m 1063 900 q 992 756 1015 832 q 969 600 969 679 q 992 444 969 521 q 1063 300 1015 368 q 1089 249 1079 276 q 1099 189 1099 221 q 1084 115 1099 150 q 1044 55 1069 81 q 984 15 1018 29 q 911 0 950 0 q 849 10 879 0 q 796 40 819 21 q 678 97 740 78 q 550 115 615 115 q 422 97 485 115 q 303 40 360 78 q 249 10 279 21 q 188 0 219 0 q 115 15 149 0 q 55 55 81 29 q 15 115 29 81 q 0 189 0 150 q 10 249 0 221 q 36 300 19 276 q 107 444 83 368 q 131 600 131 521 q 107 756 131 679 q 36 900 83 832 q 10 951 19 924 q 0 1011 0 979 q 15 1085 0 1050 q 55 1145 29 1119 q 115 1185 81 1171 q 188 1200 149 1200 q 260 1185 226 1200 q 320 1145 294 1171 q 360 1085 346 1119 q 375 1011 375 1050 q 365 951 375 979 q 339 900 356 924 q 253 691 272 804 q 263 468 235 578 q 369 312 290 363 q 549 261 447 261 q 644 273 599 261 q 726 309 689 285 q 792 370 764 333 q 833 458 819 407 q 847 685 865 569 q 760 900 828 801 q 733 951 743 924 q 724 1011 724 979 q 738 1085 724 1050 q 778 1145 753 1119 q 838 1185 804 1171 q 911 1200 872 1200 q 984 1185 950 1200 q 1044 1145 1018 1171 q 1084 1085 1069 1119 q 1099 1011 1099 1050 q 1089 951 1099 979 q 1063 900 1079 924 z "},"V":{"ha":1133,"x_min":0,"x_max":1099,"o":"m 1099 1011 q 1087 945 1099 976 q 1053 889 1075 914 q 1003 847 1032 864 q 940 825 974 831 q 728 733 826 794 q 555 585 629 671 q 433 392 481 499 q 374 168 386 286 q 353 102 369 133 q 313 49 338 71 q 256 13 288 26 q 188 0 224 0 q 115 15 149 0 q 55 55 81 29 q 15 115 29 81 q 0 189 0 150 q 10 249 0 221 q 36 300 19 276 q 107 444 83 368 q 131 600 131 521 q 107 756 131 679 q 36 900 83 832 q 10 951 19 924 q 0 1011 0 979 q 15 1085 0 1050 q 55 1145 29 1119 q 115 1185 81 1171 q 188 1200 149 1200 q 260 1185 226 1200 q 320 1145 294 1171 q 360 1085 346 1119 q 375 1011 375 1050 q 365 951 375 979 q 339 900 356 924 q 252 689 271 803 q 263 464 233 575 q 278 442 267 450 q 301 433 289 433 q 321 439 310 433 q 474 545 404 483 q 595 683 543 607 q 681 848 647 760 q 725 1032 714 936 q 744 1099 729 1068 q 785 1151 760 1129 q 842 1187 810 1174 q 911 1200 875 1200 q 984 1185 950 1200 q 1044 1145 1018 1171 q 1084 1085 1069 1119 q 1099 1011 1099 1050 z "},"W":{"ha":1857,"x_min":0,"x_max":1822,"o":"m 1786 900 q 1716 756 1739 832 q 1693 600 1693 679 q 1716 444 1693 521 q 1786 300 1739 368 q 1813 249 1803 276 q 1822 189 1822 221 q 1808 115 1822 150 q 1767 55 1793 81 q 1708 15 1742 29 q 1635 0 1674 0 q 1566 13 1599 0 q 1508 49 1533 26 q 1468 102 1483 71 q 1449 168 1453 133 q 1344 478 1429 338 q 1124 714 1258 619 q 1068 731 1099 731 q 1003 706 1032 731 q 971 642 974 682 q 987 465 964 553 q 1063 300 1010 376 q 1089 249 1079 276 q 1099 189 1099 221 q 1084 115 1099 150 q 1044 55 1069 81 q 984 15 1018 29 q 911 0 950 0 q 838 15 872 0 q 778 55 804 29 q 738 115 753 81 q 724 189 724 150 q 733 249 724 221 q 760 300 743 276 q 835 465 813 376 q 851 642 858 553 q 819 706 849 682 q 754 731 790 731 q 699 714 724 731 q 478 478 564 619 q 374 168 393 338 q 353 102 369 133 q 313 49 338 71 q 256 13 288 26 q 188 0 224 0 q 115 15 149 0 q 55 55 81 29 q 15 115 29 81 q 0 189 0 150 q 10 249 0 221 q 36 300 19 276 q 107 444 83 368 q 131 600 131 521 q 107 756 131 679 q 36 900 83 832 q 10 951 19 924 q 0 1011 0 979 q 15 1085 0 1050 q 55 1145 29 1119 q 115 1185 81 1171 q 188 1200 149 1200 q 260 1185 226 1200 q 320 1145 294 1171 q 360 1085 346 1119 q 375 1011 375 1050 q 365 951 375 979 q 339 900 356 924 q 267 750 290 829 q 246 589 243 671 q 281 510 247 540 q 356 479 314 479 q 421 501 390 479 q 627 733 547 596 q 725 1032 707 869 q 744 1099 729 1068 q 785 1151 760 1129 q 842 1187 810 1174 q 911 1200 875 1200 q 979 1187 947 1200 q 1036 1151 1011 1174 q 1077 1099 1061 1129 q 1097 1032 1093 1068 q 1195 733 1115 869 q 1401 501 1275 596 q 1465 479 1429 479 q 1542 510 1508 479 q 1576 589 1575 540 q 1556 750 1579 671 q 1483 900 1532 829 q 1457 951 1467 924 q 1447 1011 1447 979 q 1462 1085 1447 1050 q 1502 1145 1476 1119 q 1562 1185 1528 1171 q 1635 1200 1596 1200 q 1708 1185 1674 1200 q 1767 1145 1742 1171 q 1808 1085 1793 1119 q 1822 1011 1822 1050 q 1813 951 1822 979 q 1786 900 1803 924 z "},"X":{"ha":1161,"x_min":0,"x_max":1099,"o":"m 158 825 q 96 847 125 831 q 45 889 67 864 q 12 945 24 914 q 0 1011 0 976 q 15 1085 0 1050 q 55 1145 29 1119 q 115 1185 81 1171 q 188 1200 149 1200 q 256 1187 224 1200 q 313 1151 288 1174 q 353 1099 338 1129 q 374 1032 369 1068 q 471 735 392 872 q 506 701 485 713 q 550 690 526 690 q 594 701 574 690 q 628 735 615 713 q 725 1032 707 872 q 744 1099 729 1068 q 785 1151 760 1129 q 842 1187 810 1174 q 911 1200 875 1200 q 984 1185 950 1200 q 1044 1145 1018 1171 q 1084 1085 1069 1119 q 1099 1011 1099 1050 q 1087 945 1099 976 q 1053 889 1075 914 q 1003 847 1032 864 q 940 825 974 831 q 808 792 874 808 q 688 739 742 775 q 639 686 656 718 q 622 619 622 654 q 638 552 622 585 q 685 496 654 519 q 806 424 742 456 q 940 375 869 393 q 1003 353 974 369 q 1053 311 1032 336 q 1087 255 1075 286 q 1099 189 1099 224 q 1084 115 1099 150 q 1044 55 1069 81 q 984 15 1018 29 q 911 0 950 0 q 842 13 875 0 q 785 49 810 26 q 744 102 760 71 q 725 168 729 133 q 667 386 713 285 q 617 445 650 426 q 549 464 585 464 q 481 445 513 464 q 431 386 449 426 q 374 168 386 282 q 353 102 369 133 q 313 49 338 71 q 256 13 288 26 q 188 0 224 0 q 115 15 149 0 q 55 55 81 29 q 15 115 29 81 q 0 189 0 150 q 12 255 0 224 q 45 311 24 286 q 96 353 67 336 q 158 375 125 369 q 289 422 226 393 q 407 492 351 451 q 455 549 439 515 q 470 617 471 582 q 452 684 469 651 q 401 738 435 717 q 283 790 349 769 q 158 825 218 810 z "},"Y":{"ha":1161,"x_min":0,"x_max":1099,"o":"m 1063 900 q 992 756 1015 832 q 969 600 969 679 q 992 444 969 521 q 1063 300 1015 368 q 1089 249 1079 276 q 1099 189 1099 221 q 1084 115 1099 150 q 1044 55 1069 81 q 984 15 1018 29 q 911 0 950 0 q 849 10 879 0 q 796 40 819 21 q 678 97 740 78 q 550 115 615 115 q 422 97 485 115 q 303 40 360 78 q 249 10 279 21 q 188 0 219 0 q 115 15 149 0 q 55 55 81 29 q 15 115 29 81 q 0 189 0 150 q 15 262 0 228 q 55 322 29 296 q 115 362 81 347 q 188 376 149 376 q 303 338 253 376 q 553 261 418 261 q 655 278 607 261 q 741 327 703 296 q 806 403 779 358 q 843 500 833 447 q 852 631 856 565 q 828 761 849 697 q 806 790 821 781 q 774 800 792 800 q 749 794 760 800 q 651 706 689 763 q 607 579 613 650 q 561 484 601 522 q 464 446 521 446 q 408 457 435 446 q 362 488 382 468 q 331 535 342 508 q 319 590 319 561 q 333 650 319 624 q 347 718 350 685 q 326 776 343 751 q 281 815 310 801 q 215 825 251 829 q 201 824 208 824 q 188 824 194 824 q 115 838 149 824 q 55 878 81 853 q 15 938 29 904 q 0 1011 0 972 q 15 1085 0 1050 q 55 1145 29 1119 q 115 1185 81 1171 q 188 1200 149 1200 q 260 1185 226 1200 q 320 1145 294 1171 q 360 1085 346 1119 q 375 1011 375 1050 q 350 918 375 960 q 326 853 331 886 q 335 792 322 819 q 376 749 347 765 q 450 732 404 732 l 458 732 l 468 732 q 569 758 522 735 q 651 818 617 781 q 706 905 686 856 q 724 1008 725 954 q 738 1083 724 1049 q 778 1144 753 1118 q 837 1185 803 1169 q 911 1200 871 1200 q 984 1185 950 1200 q 1044 1145 1018 1171 q 1084 1085 1069 1119 q 1099 1011 1099 1050 q 1089 951 1099 979 q 1063 900 1079 924 z "},"Z":{"ha":1161,"x_min":0,"x_max":1099,"o":"m 911 376 q 984 362 950 376 q 1044 322 1018 347 q 1084 262 1069 296 q 1099 189 1099 228 q 1084 115 1099 150 q 1044 55 1069 81 q 984 15 1018 29 q 911 0 950 0 q 849 10 879 0 q 796 40 819 21 q 678 97 740 78 q 550 115 615 115 q 422 97 485 115 q 303 40 360 78 q 249 10 279 21 q 188 0 219 0 q 115 15 149 0 q 55 55 81 29 q 15 115 29 81 q 0 189 0 150 q 12 255 0 224 q 45 311 24 286 q 96 353 67 336 q 158 375 125 369 q 321 438 244 397 q 462 534 397 479 q 578 658 526 589 q 664 806 629 726 q 672 850 674 828 q 658 891 669 872 q 629 922 647 910 q 588 936 611 935 q 440 925 513 943 q 303 863 367 907 q 188 824 253 824 q 115 838 149 824 q 55 878 81 853 q 15 938 29 904 q 0 1011 0 972 q 15 1085 0 1050 q 55 1145 29 1119 q 115 1185 81 1171 q 188 1200 149 1200 q 249 1190 219 1200 q 303 1160 279 1179 q 422 1103 360 1122 q 550 1085 485 1085 q 678 1103 615 1085 q 796 1160 740 1122 q 849 1190 819 1179 q 911 1200 879 1200 q 984 1185 950 1200 q 1044 1145 1018 1171 q 1084 1085 1069 1119 q 1099 1011 1099 1050 q 1087 945 1099 976 q 1053 889 1075 914 q 1003 847 1032 864 q 940 825 974 831 q 790 769 861 804 q 659 685 719 733 q 549 576 599 636 q 461 447 499 517 q 446 383 444 417 q 464 324 447 350 q 508 280 481 297 q 571 263 536 263 q 688 284 628 263 q 796 338 749 306 q 911 376 846 376 z "}," ":{"ha":563,"x_min":0,"x_max":0,"o":""}}}
